<svg width="93" height="29" viewBox="0 0 93 29" fill="none" xmlns="http://www.w3.org/2000/svg">
<path d="M0 16.9885L7.0533 9.61835L12.2692 15.0262L10.4614 16.9885L9.91315 16.4323L8.40172 17.9929L10.8615 20.5887H13.8843L11.0541 17.5911L12.8619 15.6597L25.5163 28.855H11.3949L0 16.9885Z" fill="black"/>
<path d="M27.3833 11.857L20.3152 19.2367L15.1141 13.8177L16.9219 11.857L17.4553 12.4282L18.9816 10.8689L16.5218 8.25973H13.499L16.3292 11.2548L14.5066 13.2001L1.86694 0H15.9735L27.3833 11.857Z" fill="url(#paint0_linear_1_1269)"/>
<path d="M39.763 13.9314L38.887 17.7339H33.4692L37.8813 1.51427C38.1084 0.639354 38.8221 0.0672913 39.6656 0.0672913H44.5319C45.4078 0.0672913 46.1216 0.639354 46.3162 1.51427L50.7283 17.7339H45.3105L44.4346 13.9314H39.763ZM42.7152 6.25903C42.5854 5.61966 42.4556 4.87935 42.4232 4.23998H41.7419C41.677 4.87935 41.5797 5.61966 41.4499 6.25903L40.6064 10.0279H43.5262L42.7152 6.25903Z" fill="black"/>
<path d="M57.1195 12.4171C57.1195 12.9555 57.5088 13.3257 58.1576 13.3257H63.8674L64.1269 17.4647C61.5965 17.8349 58.6118 17.8349 55.8218 17.8349C53.3563 17.8349 51.7666 16.186 51.7666 13.8305V0.100952H57.1195V12.4171Z" fill="black"/>
<path d="M78.2714 17.4984C75.8058 17.8349 72.367 17.8349 69.4148 17.8349C67.079 17.8349 65.4244 16.186 65.4244 13.8304V4.00444C65.4244 1.61523 67.079 0 69.4148 0C72.3346 0 75.8058 -2.08288e-08 78.2714 0.336507L78.0119 4.23999H71.783C71.1667 4.23999 70.7774 4.61015 70.7774 5.14856V6.86475H77.136V10.5663H70.7774V12.6863C70.7774 13.2247 71.1667 13.5949 71.783 13.5949H78.0119L78.2714 17.4984Z" fill="black"/>
<path d="M86.577 4.23999C85.8957 4.23999 85.5064 4.61015 85.5064 5.14856V7.2349H91.6054V10.9028H85.5388V17.7339H80.1859V4.00443C80.1859 1.61523 81.8729 0 84.2411 0C87.0636 0 90.47 -4.16577e-08 92.8058 0.370158L92.5463 4.27364H86.577V4.23999Z" fill="black"/>
<path d="M33.5651 25.2259C33.8877 25.1878 34.2427 25.1878 34.6299 25.1878C35.5011 25.1878 35.8237 25.6834 35.8237 27.0939C35.8237 28.5044 35.5011 29 34.6299 29C34.2104 29 33.8555 28.9619 33.5651 28.9619V25.2259ZM33.8555 28.6188C34.0813 28.6188 34.3395 28.6188 34.6299 28.6188C35.2752 28.6188 35.5011 28.1994 35.5011 27.0558C35.5011 25.9121 35.2752 25.4547 34.6299 25.4547C34.3395 25.4547 34.0813 25.4547 33.8555 25.4547V28.6188Z" fill="black"/>
<path d="M41.3091 28.8851C40.8896 28.9232 40.4056 28.9232 39.9862 28.9232C39.6635 28.9232 39.4376 28.6945 39.4376 28.3133V25.8354C39.4376 25.4541 39.6635 25.2254 39.9862 25.2254C40.4379 25.2254 40.8896 25.2254 41.3091 25.2635L41.2768 25.5304H40.0184C39.8248 25.5304 39.728 25.6447 39.728 25.9116V26.8265H41.1155V27.0934H39.728V28.237C39.728 28.5039 39.8248 28.6183 40.0184 28.6183H41.2768L41.3091 28.8851Z" fill="black"/>
<path d="M46.0518 28.8089C46.0195 28.8851 45.9872 28.9232 45.9227 28.9232H45.6C45.5355 28.9232 45.5032 28.8851 45.471 28.8089L44.4707 25.2254H44.7934L45.6 28.237C45.6323 28.3895 45.6646 28.5039 45.6968 28.6564H45.8259C45.8582 28.542 45.8904 28.3895 45.9227 28.237L46.7294 25.2254H47.052L46.0518 28.8089Z" fill="black"/>
<path d="M52.3121 28.8851C51.8927 28.9232 51.4087 28.9232 50.9892 28.9232C50.6665 28.9232 50.4407 28.6945 50.4407 28.3133V25.8354C50.4407 25.4541 50.6665 25.2254 50.9892 25.2254C51.4409 25.2254 51.8927 25.2254 52.3121 25.2635L52.2799 25.5304H51.0215C50.8279 25.5304 50.7311 25.6447 50.7311 25.9116V26.8265H52.1185V27.0934H50.7311V28.237C50.7311 28.5039 50.8279 28.6183 51.0215 28.6183H52.2799L52.3121 28.8851Z" fill="black"/>
<path d="M56.1518 28.1989C56.1518 28.4658 56.2808 28.5801 56.4744 28.5801H57.636V28.847C57.2488 28.8851 56.8294 28.8851 56.4099 28.8851C56.0227 28.8851 55.8291 28.6182 55.8291 28.237V25.1873H56.1195V28.1989H56.1518Z" fill="black"/>
<path d="M63.2501 27.0552C63.2501 28.4657 62.9275 28.9613 62.0563 28.9613C61.1851 28.9613 60.8624 28.4657 60.8624 27.0552C60.8624 25.6447 61.1851 25.1491 62.0563 25.1491C62.9275 25.1491 63.2501 25.6447 63.2501 27.0552ZM61.1528 27.0552C61.1528 28.237 61.3787 28.6563 62.0563 28.6563C62.7339 28.6563 62.9598 28.237 62.9598 27.0552C62.9598 25.8735 62.7339 25.4541 62.0563 25.4541C61.3787 25.4541 61.1528 25.8735 61.1528 27.0552Z" fill="black"/>
<path d="M66.8643 25.2254C67.1869 25.1873 67.4128 25.1873 67.8968 25.1873C68.6066 25.1873 68.8648 25.416 68.8648 26.3309C68.8648 27.2077 68.6066 27.4746 67.929 27.4746C67.6064 27.4746 67.3483 27.4365 67.1547 27.4365V28.9613H66.8643V25.2254ZM67.8968 27.1315C68.3808 27.1315 68.5744 26.979 68.5744 26.2928C68.5744 25.6447 68.413 25.4541 67.8968 25.4541C67.6064 25.4541 67.316 25.4541 67.1547 25.4541V27.0934H67.8968V27.1315Z" fill="black"/>
<path d="M75.2859 25.2254C75.3827 25.2254 75.4149 25.3016 75.4149 25.3779L75.544 28.9232H75.2536L75.1245 25.5304H75.0277L74.2211 28.4276C74.1888 28.5039 74.1565 28.542 74.092 28.542H73.8016C73.7371 28.542 73.6725 28.5039 73.6725 28.4276L72.8659 25.5304H72.7691L72.64 28.9232H72.3496L72.4787 25.3779C72.4787 25.2635 72.5109 25.2254 72.6077 25.2254H72.9627C73.0272 25.2254 73.0595 25.2635 73.0917 25.3398L73.7693 27.7414C73.8016 27.8939 73.8661 28.0845 73.8984 28.237H73.9952C74.0275 28.0845 74.092 27.8939 74.1243 27.7414L74.8019 25.3398C74.8341 25.2635 74.8664 25.2254 74.9309 25.2254H75.2859Z" fill="black"/>
<path d="M81.0614 28.8851C80.6419 28.9232 80.1579 28.9232 79.7385 28.9232C79.4158 28.9232 79.1899 28.6945 79.1899 28.3133V25.8354C79.1899 25.4541 79.4158 25.2254 79.7385 25.2254C80.1902 25.2254 80.6419 25.2254 81.0614 25.2635L81.0291 25.5304H79.7707C79.5771 25.5304 79.4803 25.6447 79.4803 25.9116V26.8265H80.8678V27.0934H79.4803V28.237C79.4803 28.5039 79.5771 28.6183 79.7707 28.6183H81.0291L81.0614 28.8851Z" fill="black"/>
<path d="M86.9335 28.7326C86.9335 28.847 86.9013 28.8851 86.8045 28.8851H86.4818C86.4173 28.8851 86.3527 28.847 86.3527 28.7707L85.1589 25.9878C85.0943 25.8735 85.0298 25.6829 84.9975 25.5304H84.9008C84.9008 25.6829 84.9008 25.8354 84.9008 25.9878V28.8851H84.6104V25.3398C84.6104 25.2254 84.6426 25.1873 84.7394 25.1873H85.0621C85.1266 25.1873 85.1912 25.2254 85.1912 25.3017L86.3527 28.0464C86.4173 28.1989 86.4818 28.3895 86.5464 28.542H86.6431C86.6431 28.3514 86.6431 28.1989 86.6431 28.0083V25.1873H86.9335V28.7326Z" fill="black"/>
<path d="M91.6772 25.5304V28.9232H91.3868V25.5304H90.3542V25.2254H92.742V25.5304H91.6772Z" fill="black"/>
<path d="M93 21.9553H33.307V22.6304H93V21.9553Z" fill="black"/>
<defs>
<linearGradient id="paint0_linear_1_1269" x1="14.6209" y1="19.2336" x2="14.6209" y2="0.00392222" gradientUnits="userSpaceOnUse">
<stop stop-color="#2B5972"/>
<stop offset="1" stop-color="#427FA2"/>
</linearGradient>
</defs>
</svg>
